<?xml version="1.0" standalone="no"?>
<!DOCTYPE svg PUBLIC "-//W3C//DTD SVG 20010904//EN"
 "http://www.w3.org/TR/2001/REC-SVG-20010904/DTD/svg10.dtd">
<svg version="1.0" xmlns="http://www.w3.org/2000/svg"
 width="500.000000pt" height="500.000000pt" viewBox="0 0 500.000000 500.000000"
 preserveAspectRatio="xMidYMid meet">
<metadata>
Created by potrace 1.14, written by Peter Selinger 2001-2017
</metadata>
<g transform="translate(0.000000,500.000000) scale(0.100000,-0.100000)"
fill="#000000" stroke="none">
<path d="M467 3053 c0 -189 4 -347 8 -351 11 -11 345 -9 346 3 1 5 3 84 4 175
1 91 3 172 4 180 1 14 37 16 304 15 311 -2 354 -6 467 -47 142 -51 278 -158
356 -279 16 -24 30 -46 32 -49 2 -2 91 -5 198 -5 224 0 208 -14 143 118 -121
248 -362 454 -619 529 -163 48 -198 50 -735 53 l-510 3 2 -345z"/>
<path d="M2690 3046 l0 -351 168 0 c92 0 172 4 179 8 7 4 11 25 10 47 -2 22
-2 40 0 40 1 0 18 -21 38 -47 l36 -48 219 0 219 0 -16 25 c-14 21 -243 331
-449 606 l-53 71 -176 0 -175 1 0 -352z"/>
<path d="M4179 3376 c-3 -117 0 -666 4 -673 3 -5 81 -8 174 -8 l168 0 3 351 2
352 -175 0 c-172 0 -175 -1 -176 -22z"/>
<path d="M1349 2607 c0 -7 -2 -50 -2 -97 l-1 -85 53 -3 c88 -5 141 29 141 90
0 42 -20 76 -54 92 -38 18 -136 20 -137 3z m133 -35 c5 -5 12 -22 17 -40 13
-45 -22 -82 -78 -82 l-40 0 3 68 c2 37 4 69 5 70 2 7 85 -8 93 -16z"/>
<path d="M1627 2613 c-2 -5 -3 -48 -3 -98 1 -77 4 -90 19 -93 14 -3 17 4 17
40 l0 43 48 0 c55 0 60 -5 55 -51 -3 -29 0 -34 17 -34 19 0 20 6 20 100 0 91
-2 100 -19 100 -15 0 -18 -7 -17 -40 1 -27 -2 -40 -11 -41 -7 -1 -30 -2 -50
-2 -38 -1 -38 -1 -41 41 -2 28 -8 42 -17 42 -8 0 -16 -3 -18 -7z"/>
<path d="M1899 2618 c-1 -2 -2 -47 -4 -100 -2 -89 0 -98 17 -98 16 0 18 10 18
100 0 82 -3 100 -15 100 -8 0 -16 -1 -16 -2z"/>
<path d="M2029 2598 c-6 -122 -3 -171 9 -175 17 -7 22 -2 24 30 2 23 7 27 31
25 20 -2 33 -11 43 -30 8 -16 23 -28 34 -28 25 0 25 6 1 37 -20 24 -20 24 0
44 10 10 19 32 19 47 0 44 -31 65 -100 69 -56 3 -60 2 -61 -19z m116 -32 c22
-31 2 -56 -44 -56 -36 0 -38 2 -39 32 0 18 1 36 4 40 10 15 66 4 79 -16z"/>
<path d="M2330 2600 c-6 -11 -26 -56 -45 -100 -31 -71 -32 -80 -16 -80 10 0
22 10 28 22 8 19 19 23 61 24 45 2 51 0 56 -22 4 -15 14 -24 26 -24 11 0 20 2
20 5 0 2 -20 47 -45 100 -45 97 -64 114 -85 75z m54 -86 c5 -18 2 -20 -29 -20
-27 1 -34 4 -29 16 3 8 11 28 16 44 l11 29 12 -24 c7 -13 15 -33 19 -45z"/>
<path d="M2525 2610 c-11 -18 3 -27 35 -22 l30 4 0 -66 c0 -72 -14 -91 -50
-68 -14 8 -21 8 -30 -3 -14 -17 15 -35 58 -35 45 0 56 22 57 113 l0 82 -47 3
c-26 1 -50 -2 -53 -8z"/>
<path d="M2842 2520 c-1 -93 1 -100 19 -100 17 0 19 7 18 58 -1 31 -1 61 0 65
1 5 25 -21 54 -57 76 -95 87 -90 84 34 -1 89 -3 100 -19 100 -15 0 -18 -9 -18
-67 l-1 -68 -32 40 c-45 56 -84 95 -95 95 -6 0 -10 -42 -10 -100z"/>
<path d="M3135 2527 c-25 -52 -45 -97 -45 -101 0 -16 36 -3 45 16 8 19 18 23
58 24 42 1 50 -2 59 -22 6 -13 19 -24 29 -24 15 0 12 14 -25 97 -27 62 -49 99
-59 101 -13 3 -29 -20 -62 -91z m80 7 c8 -20 15 -37 15 -38 0 -6 -59 0 -65 6
-6 6 21 68 30 68 3 0 12 -16 20 -36z"/>
<path d="M3369 2613 c0 -5 -2 -48 -3 -97 -1 -66 2 -90 12 -93 21 -9 25 3 25
79 -1 112 -2 118 -18 118 -8 0 -15 -3 -16 -7z"/>
<path d="M3500 2520 c0 -91 2 -101 18 -98 10 2 17 13 17 26 0 12 8 29 16 38
15 14 19 12 51 -25 22 -26 43 -41 57 -41 23 0 23 0 -5 34 -69 80 -66 69 -24
117 31 35 35 45 22 48 -9 2 -35 -18 -64 -48 -26 -28 -48 -48 -49 -44 -1 5 -2
26 -3 48 -1 29 -6 41 -19 43 -15 3 -17 -7 -17 -98z"/>
<path d="M470 2295 c-1 -14 -1 -975 -1 -1002 l1 -23 503 4 c276 2 516 6 534 9
17 3 59 11 91 17 81 14 184 50 272 94 303 152 528 472 556 791 3 39 7 80 9 93
4 26 19 24 -183 26 -103 1 -166 -2 -170 -9 -7 -11 -7 -10 -16 -80 -7 -59 -37
-165 -61 -215 -91 -192 -276 -339 -484 -386 -62 -14 -131 -18 -386 -18 l-310
-1 0 347 c0 190 -4 350 -8 355 -13 12 -347 11 -347 -2z"/>
<path d="M2692 2298 c-4 -4 -6 -237 -4 -517 l2 -511 178 3 177 2 0 515 0 515
-173 0 c-95 0 -176 -3 -180 -7z"/>
<path d="M3420 2299 c0 -6 55 -82 336 -459 72 -96 196 -264 277 -373 l147
-197 175 1 175 2 0 513 c0 283 -3 515 -7 515 -5 1 -83 2 -175 3 l-168 1 -1
-30 c0 -16 -1 -112 -1 -212 0 -101 -2 -183 -4 -183 -2 0 -75 96 -162 213
l-158 212 -217 0 c-119 0 -217 -3 -217 -6z"/>
</g>
</svg>
